<?xml version="1.0" encoding="UTF-8"?>
<!-- Generator: visioncortex VTracer 0.6.3 -->
<svg version="1.1" xmlns="http://www.w3.org/2000/svg" width="1280" height="397">
<path d="M0 0 C3.77 0.03 7.54 0.02 11.3 0 C25.48 0.01 38.79 0.93 52.51 4.6 C53.51 4.86 53.51 4.86 54.52 5.13 C58.8 6.29 63 7.62 67.2 9.03 C67.82 9.24 68.44 9.45 69.08 9.66 C84.17 14.74 100.31 21.2 112.51 31.6 C114.5 32.94 116.5 34.27 118.51 35.6 C126.08 41.01 133.09 46.87 139.88 53.22 C140.54 53.83 141.19 54.44 141.86 55.07 C146.37 59.34 150.5 63.86 154.51 68.6 C155.52 69.79 155.52 69.79 156.55 71 C178.09 97.48 193.97 128.74 199.51 162.6 C199.68 163.43 199.84 164.27 200.02 165.13 C201.86 175.19 201.88 185.2 201.88 195.39 C201.88 198.43 201.92 201.47 201.96 204.5 C202.06 223.39 199.34 241.61 193.51 259.6 C192.99 261.34 192.99 261.34 192.46 263.11 C184.23 289.62 169.05 312.3 150.89 333.01 C149.69 334.39 148.52 335.78 147.35 337.17 C142.31 343.1 136.63 347.83 130.51 352.6 C129.54 353.38 128.58 354.16 127.58 354.96 C111.88 367.46 95.05 376.97 76.51 384.6 C75.77 384.9 75.03 385.21 74.27 385.53 C59.5 391.53 43.37 395.14 27.48 396.36 C25.43 396.49 25.43 396.49 23.51 397.6 C20.46 397.7 17.43 397.74 14.38 397.73 C13.47 397.73 12.57 397.73 11.64 397.73 C9.72 397.73 7.81 397.73 5.89 397.73 C2.95 397.72 0.01 397.73 -2.93 397.73 C-4.78 397.73 -6.64 397.73 -8.5 397.73 C-9.82 397.73 -9.82 397.73 -11.18 397.74 C-17.38 397.71 -17.38 397.71 -18.49 396.6 C-20.1 396.34 -21.71 396.13 -23.33 395.94 C-60.77 391.2 -95.8 376.24 -124.49 351.6 C-125.27 350.93 -126.04 350.27 -126.84 349.59 C-166.43 314.83 -191.6 269.46 -196.49 216.6 C-196.84 210.91 -196.83 205.23 -196.8 199.53 C-196.8 198.77 -196.8 198.01 -196.8 197.22 C-196.69 175.54 -193.18 156.24 -186.49 135.6 C-186.27 134.89 -186.04 134.17 -185.81 133.44 C-178.75 111.2 -165.96 90.71 -151.49 72.6 C-150.74 71.65 -150 70.7 -149.23 69.73 C-148.45 68.76 -147.67 67.79 -146.87 66.78 C-146.15 65.89 -145.44 65 -144.7 64.08 C-142.48 61.58 -140.12 59.65 -137.49 57.6 C-136.79 56.71 -136.09 55.82 -135.37 54.91 C-119.02 34.73 -90.42 20.2 -66.49 11.6 C-65.24 11.11 -64 10.62 -62.75 10.14 C-42.24 2.26 -21.88 -0.22 0 0 Z " fill="#E69837" transform="translate(196.4921875,-0.596923828125)"/>
<path d="M0 0 C1.14 -0 1.14 -0 2.29 -0 C4.84 -0 7.4 0 9.95 0.01 C11.77 0.01 13.59 0.01 15.41 0.01 C20.37 0.01 25.34 0.01 30.3 0.02 C35.48 0.03 40.66 0.03 45.83 0.03 C55.65 0.03 65.46 0.04 75.28 0.05 C86.45 0.06 97.62 0.06 108.79 0.07 C131.77 0.08 154.75 0.1 177.74 0.12 C179.39 3.43 178.87 7.11 178.86 10.74 C178.86 11.65 178.87 12.55 178.87 13.48 C178.87 16.53 178.87 19.57 178.87 22.62 C178.87 24.79 178.87 26.97 178.87 29.15 C178.88 35.07 178.87 40.99 178.87 46.92 C178.87 53.1 178.87 59.29 178.87 65.47 C178.87 75.86 178.87 86.25 178.87 96.64 C178.86 107.34 178.86 118.03 178.87 128.73 C178.87 140.37 178.87 152.01 178.87 163.65 C178.87 169.82 178.87 175.98 178.87 182.15 C178.88 187.94 178.87 193.74 178.87 199.53 C178.87 201.66 178.87 203.8 178.87 205.93 C178.87 208.83 178.87 211.72 178.86 214.62 C178.87 215.48 178.87 216.33 178.87 217.22 C178.85 223.01 178.85 223.01 177.74 224.12 C175.37 224.23 173.03 224.28 170.66 224.28 C169.91 224.29 169.16 224.29 168.39 224.3 C165.86 224.31 163.33 224.32 160.8 224.33 C158.99 224.34 157.19 224.35 155.38 224.36 C149.43 224.39 143.47 224.41 137.52 224.43 C136.51 224.43 135.5 224.44 134.45 224.44 C124.91 224.47 115.36 224.5 105.81 224.51 C93.59 224.54 81.38 224.58 69.17 224.65 C60.58 224.69 51.99 224.72 43.41 224.73 C38.28 224.73 33.15 224.75 28.02 224.79 C23.19 224.82 18.36 224.83 13.53 224.82 C11.77 224.82 10 224.83 8.23 224.85 C-1.52 224.96 -9.47 224.77 -17.26 218.12 C-22.07 213.31 -23.48 208.14 -23.54 201.41 C-23.54 200.69 -23.53 199.98 -23.53 199.24 C-23.54 198.08 -23.54 198.08 -23.54 196.89 C-23.56 194.3 -23.56 191.71 -23.55 189.12 C-23.56 187.26 -23.57 185.41 -23.57 183.55 C-23.59 178.5 -23.6 173.45 -23.6 168.41 C-23.6 165.26 -23.6 162.1 -23.61 158.95 C-23.63 147.94 -23.64 136.94 -23.63 125.93 C-23.63 115.68 -23.65 105.42 -23.69 95.17 C-23.71 86.36 -23.72 77.55 -23.72 68.75 C-23.72 63.49 -23.73 58.23 -23.75 52.97 C-23.77 48.02 -23.77 43.08 -23.75 38.13 C-23.75 36.32 -23.76 34.51 -23.77 32.69 C-23.78 30.21 -23.77 27.74 -23.76 25.26 C-23.77 24.54 -23.78 23.83 -23.79 23.1 C-23.7 16.31 -21.19 11.34 -16.83 6.31 C-11.25 1.55 -7.2 -0.03 0 0 Z " fill="#E69837" transform="translate(121.26382446289063,85.87974548339844)"/>
<path d="M0 0 C1.14 -0 1.14 -0 2.29 -0 C4.84 -0 7.4 0 9.95 0.01 C11.77 0.01 13.59 0.01 15.41 0.01 C20.37 0.01 25.34 0.01 30.3 0.02 C35.48 0.03 40.66 0.03 45.83 0.03 C55.65 0.03 65.46 0.04 75.28 0.05 C86.45 0.06 97.62 0.06 108.79 0.07 C131.77 0.08 154.75 0.1 177.74 0.12 C179.39 3.43 178.87 7.11 178.86 10.74 C178.86 11.65 178.87 12.55 178.87 13.48 C178.87 16.53 178.87 19.57 178.87 22.62 C178.87 24.79 178.87 26.97 178.87 29.15 C178.88 35.07 178.87 40.99 178.87 46.92 C178.87 53.1 178.87 59.29 178.87 65.47 C178.87 75.86 178.87 86.25 178.87 96.64 C178.86 107.34 178.86 118.03 178.87 128.73 C178.87 140.37 178.87 152.01 178.87 163.65 C178.87 169.82 178.87 175.98 178.87 182.15 C178.88 187.94 178.87 193.74 178.87 199.53 C178.87 201.66 178.87 203.8 178.87 205.93 C178.87 208.83 178.87 211.72 178.86 214.62 C178.87 215.48 178.87 216.33 178.87 217.22 C178.85 223.01 178.85 223.01 177.74 224.12 C175.37 224.23 173.03 224.28 170.66 224.28 C169.91 224.29 169.16 224.29 168.39 224.3 C165.86 224.31 163.33 224.32 160.8 224.33 C158.99 224.34 157.19 224.35 155.38 224.36 C149.43 224.39 143.47 224.41 137.52 224.43 C136.51 224.43 135.5 224.44 134.45 224.44 C124.91 224.47 115.36 224.5 105.81 224.51 C93.59 224.54 81.38 224.58 69.17 224.65 C60.58 224.69 51.99 224.72 43.41 224.73 C38.28 224.73 33.15 224.75 28.02 224.79 C23.19 224.82 18.36 224.83 13.53 224.82 C11.77 224.82 10 224.83 8.23 224.85 C-1.52 224.96 -9.47 224.77 -17.26 218.12 C-22.07 213.31 -23.48 208.14 -23.54 201.41 C-23.54 200.69 -23.53 199.98 -23.53 199.24 C-23.54 198.08 -23.54 198.08 -23.54 196.89 C-23.56 194.3 -23.56 191.71 -23.55 189.12 C-23.56 187.26 -23.57 185.41 -23.57 183.55 C-23.59 178.5 -23.6 173.45 -23.6 168.41 C-23.6 165.26 -23.6 162.1 -23.61 158.95 C-23.63 147.94 -23.64 136.94 -23.63 125.93 C-23.63 115.68 -23.65 105.42 -23.69 95.17 C-23.71 86.36 -23.72 77.55 -23.72 68.75 C-23.72 63.49 -23.73 58.23 -23.75 52.97 C-23.77 48.02 -23.77 43.08 -23.75 38.13 C-23.75 36.32 -23.76 34.51 -23.77 32.69 C-23.78 30.21 -23.77 27.74 -23.76 25.26 C-23.77 24.54 -23.78 23.83 -23.79 23.1 C-23.7 16.31 -21.19 11.34 -16.83 6.31 C-11.25 1.55 -7.2 -0.03 0 0 Z M-11.26 17.12 C-12.38 20.48 -12.39 23 -12.39 26.54 C-12.39 27.2 -12.39 27.85 -12.4 28.53 C-12.4 30.72 -12.4 32.92 -12.39 35.12 C-12.39 36.69 -12.4 38.26 -12.4 39.84 C-12.4 44.11 -12.4 48.39 -12.4 52.67 C-12.4 57.14 -12.4 61.61 -12.4 66.08 C-12.4 73.58 -12.4 81.09 -12.39 88.6 C-12.39 97.28 -12.39 105.97 -12.4 114.66 C-12.4 122.11 -12.4 129.56 -12.4 137.01 C-12.4 141.46 -12.4 145.92 -12.4 150.37 C-12.4 154.55 -12.4 158.74 -12.4 162.92 C-12.39 164.46 -12.39 166 -12.4 167.54 C-12.4 169.64 -12.4 171.73 -12.39 173.83 C-12.39 175 -12.39 176.17 -12.39 177.38 C-12.45 180.08 -12.45 180.08 -11.26 182.12 C-10.74 181.98 -10.21 181.84 -9.66 181.69 C-1.32 179.73 6.96 179.81 15.48 179.8 C17.15 179.79 18.83 179.78 20.51 179.77 C25.03 179.74 29.55 179.73 34.08 179.72 C38.82 179.7 43.55 179.67 48.29 179.65 C57.25 179.6 66.21 179.56 75.17 179.53 C85.38 179.49 95.58 179.44 105.79 179.39 C126.77 179.29 147.75 179.2 168.74 179.12 C168.76 157.23 168.78 135.35 168.79 113.46 C168.79 103.3 168.8 93.13 168.81 82.97 C168.82 74.12 168.83 65.27 168.83 56.41 C168.83 51.72 168.83 47.03 168.84 42.34 C168.85 37.93 168.85 33.52 168.85 29.11 C168.85 27.49 168.85 25.86 168.86 24.24 C168.86 22.03 168.86 19.83 168.86 17.62 C168.86 16.38 168.86 15.14 168.86 13.87 C169.05 11.21 169.05 11.21 167.74 10.12 C165.56 10.02 163.38 9.99 161.2 9.98 C160.5 9.98 159.81 9.97 159.1 9.97 C156.77 9.96 154.43 9.96 152.1 9.96 C150.43 9.95 148.76 9.95 147.1 9.94 C142.55 9.93 138.01 9.92 133.47 9.92 C130.64 9.92 127.8 9.91 124.97 9.91 C116.1 9.89 107.23 9.89 98.37 9.88 C88.12 9.88 77.88 9.86 67.63 9.83 C59.72 9.81 51.81 9.8 43.9 9.8 C39.17 9.8 34.45 9.79 29.72 9.77 C25.27 9.76 20.82 9.75 16.37 9.76 C14.74 9.76 13.11 9.76 11.47 9.75 C9.24 9.74 7.01 9.74 4.78 9.75 C3.54 9.75 2.29 9.75 1 9.75 C-4.39 10.36 -7.75 13.11 -11.26 17.12 Z " fill="#FBFDFD" transform="translate(121.26382446289063,85.87974548339844)"/>
<path d="M0 0 C2.55 1.8 4.96 3.63 7 6 C7 6.66 7 7.32 7 8 C8.3 7.77 9.6 7.55 10.94 7.31 C18.16 6.53 24.64 8.95 30.37 13.35 C36.08 19.12 39.92 27.1 40.38 35.19 C40.15 42.94 37.57 49.25 32.46 54.99 C28.3 60.3 28 64.58 28.1 71.16 C28.09 72.19 28.07 73.22 28.06 74.28 C28.03 77.54 28.04 80.8 28.06 84.06 C28.05 86.29 28.03 88.51 28.01 90.73 C27.97 96.16 27.97 101.58 28 107 C24.27 109.42 20.58 109.29 16.28 109.27 C15.51 109.28 14.74 109.28 13.94 109.29 C11.39 109.3 8.84 109.3 6.29 109.3 C4.51 109.3 2.73 109.31 0.96 109.31 C-2.76 109.32 -6.49 109.32 -10.21 109.32 C-14.97 109.31 -19.74 109.33 -24.5 109.35 C-28.17 109.36 -31.84 109.37 -35.51 109.36 C-37.26 109.36 -39.02 109.37 -40.78 109.38 C-43.24 109.39 -45.69 109.38 -48.15 109.37 C-48.88 109.38 -49.6 109.39 -50.35 109.4 C-54.73 109.35 -57.51 108.69 -61 106 C-62.17 103.65 -62.12 102.28 -62.11 99.66 C-62.11 98.76 -62.11 97.86 -62.11 96.94 C-62.11 95.97 -62.11 94.99 -62.11 93.99 C-62.12 91.93 -62.13 89.87 -62.15 87.81 C-62.17 84.57 -62.19 81.32 -62.18 78.07 C-62.17 74.94 -62.2 71.81 -62.23 68.68 C-62.22 67.71 -62.21 66.75 -62.19 65.76 C-62.3 59.8 -63.27 56.64 -67.57 52.43 C-71.71 48.29 -73.2 41.13 -73.5 35.44 C-73.06 27.44 -69.48 20.54 -64.07 14.76 C-57.2 8.91 -49.83 6.84 -41 7 C-40.34 7 -39.68 7 -39 7 C-37.85 5.82 -36.7 4.63 -35.56 3.44 C-25.51 -5.86 -11.83 -6.68 0 0 Z " fill="#FAFCFC" transform="translate(216,123)"/>
<path d="M0 0 C6.8 -0.03 13.6 -0.04 20.4 -0.05 C22.71 -0.06 25.03 -0.07 27.34 -0.08 C30.66 -0.09 33.98 -0.09 37.3 -0.1 C38.86 -0.11 38.86 -0.11 40.46 -0.11 C41.42 -0.11 42.38 -0.11 43.37 -0.11 C44.21 -0.12 45.06 -0.12 45.94 -0.12 C48 0 48 0 50 1 C50 1.66 50 2.32 50 3 C47.95 3.23 45.9 3.46 43.85 3.68 C41.99 3.82 41.99 3.82 41 5 C40.91 6.5 40.88 8.01 40.89 9.52 C40.89 10.48 40.89 11.44 40.89 12.43 C40.89 13.48 40.9 14.52 40.9 15.6 C40.9 17.19 40.9 17.19 40.91 18.82 C40.91 22.24 40.92 25.65 40.94 29.06 C40.94 31.37 40.95 33.68 40.95 35.99 C40.96 41.66 40.98 47.33 41 53 C56.84 53.5 56.84 53.5 73 54 C72.67 37.5 72.34 21 72 4 C69.36 3.67 66.72 3.34 64 3 C64.33 2.01 64.66 1.02 65 0 C71.94 -0.03 78.88 -0.04 85.83 -0.05 C88.19 -0.06 90.55 -0.07 92.91 -0.08 C96.3 -0.09 99.7 -0.09 103.09 -0.1 C104.15 -0.1 105.21 -0.11 106.3 -0.11 C107.77 -0.11 107.77 -0.11 109.27 -0.11 C110.14 -0.12 111.01 -0.12 111.9 -0.12 C114 0 114 0 116 1 C116 1.66 116 2.32 116 3 C113.95 3.23 111.9 3.46 109.85 3.68 C107.99 3.82 107.99 3.82 107 5 C106.9 6.39 106.88 7.79 106.88 9.18 C106.88 10.08 106.88 10.99 106.88 11.91 C106.88 12.91 106.88 13.91 106.89 14.94 C106.89 15.98 106.89 17.02 106.89 18.1 C106.89 21.57 106.89 25.04 106.9 28.5 C106.9 30.9 106.91 33.3 106.91 35.7 C106.91 42.02 106.92 48.35 106.93 54.67 C106.94 61.12 106.95 67.57 106.95 74.01 C106.96 86.68 106.98 99.34 107 112 C109.97 112.66 112.94 113.32 116 114 C116 114.66 116 115.32 116 116 C98.84 116 81.68 116 64 116 C64.49 114.51 64.49 114.51 65 113 C67.64 113 70.28 113 73 113 C72.67 95.51 72.34 78.02 72 60 C67.07 59.98 62.14 59.96 57.06 59.94 C55.51 59.93 53.95 59.92 52.34 59.91 C51.13 59.91 49.91 59.9 48.66 59.9 C47.41 59.9 46.16 59.89 44.87 59.89 C42.1 59.67 42.1 59.67 41 61 C40.91 62.6 40.88 64.2 40.89 65.8 C40.89 66.82 40.89 67.84 40.89 68.89 C40.89 70 40.9 71.11 40.9 72.25 C40.9 73.38 40.91 74.52 40.91 75.68 C40.91 79.31 40.92 82.93 40.94 86.56 C40.94 89.01 40.95 91.47 40.95 93.92 C40.96 99.95 40.98 105.97 41 112 C43.97 112.66 46.94 113.32 50 114 C50 114.66 50 115.32 50 116 C33.17 116 16.34 116 -1 116 C-0.67 115.01 -0.34 114.02 0 113 C2.64 113 5.28 113 8 113 C7.5 59.05 7.5 59.05 7 4 C4.36 3.67 1.72 3.34 -1 3 C-0.67 2.01 -0.34 1.02 0 0 Z " fill="#EA7710" transform="translate(964,124)"/>
<path d="M0 0 C7.49 4.61 13.1 9.7 16.25 18 C16.64 18.93 17.03 19.86 17.44 20.81 C21.1 35.19 21.59 55.65 14.25 69 C9.49 75.88 4.2 79.83 -3.94 81.75 C-23.69 83.05 -23.69 83.05 -31.75 77 C-31.75 89.54 -31.75 102.08 -31.75 115 C-25.81 115.33 -19.87 115.66 -13.75 116 C-12.76 116.5 -12.76 116.5 -11.75 117 C-11.75 117.99 -11.75 118.98 -11.75 120 C-31.88 120 -52.01 120 -72.75 120 C-72.42 118.68 -72.09 117.36 -71.75 116 C-69.44 116 -67.13 116 -64.75 116 C-65.08 79.7 -65.41 43.4 -65.75 6 C-68.06 5.67 -70.37 5.34 -72.75 5 C-72.42 3.68 -72.09 2.36 -71.75 1 C-66.66 0.98 -61.57 0.96 -56.48 0.95 C-54.75 0.94 -53.01 0.93 -51.28 0.92 C-48.79 0.91 -46.31 0.91 -43.82 0.9 C-43.04 0.9 -42.27 0.89 -41.47 0.89 C-35.98 0.89 -35.98 0.89 -33.75 2 C-33.34 4.5 -33.34 4.5 -33.12 7.56 C-33.05 8.57 -32.98 9.59 -32.9 10.63 C-32.85 11.41 -32.8 12.19 -32.75 13 C-32.42 12.13 -32.09 11.27 -31.75 10.38 C-25.01 -0.99 -12.1 -3.23 0 0 Z M-27.75 11 C-31.55 15.92 -32.86 19.56 -32.91 25.67 C-32.92 26.59 -32.93 27.52 -32.94 28.47 C-32.94 29.45 -32.95 30.44 -32.95 31.46 C-32.96 32.48 -32.96 33.51 -32.97 34.56 C-32.98 36.73 -32.99 38.89 -32.99 41.05 C-33 44.36 -33.03 47.66 -33.06 50.96 C-33.07 53.07 -33.07 55.17 -33.08 57.27 C-33.09 58.26 -33.1 59.24 -33.12 60.26 C-33.1 65.57 -32.84 69.45 -29.75 74 C-26.55 76.14 -25.73 76.23 -22.06 76.12 C-21.25 76.11 -20.45 76.09 -19.61 76.07 C-19 76.05 -18.38 76.02 -17.75 76 C-17.28 74.95 -16.8 73.9 -16.31 72.81 C-16.05 72.22 -15.78 71.63 -15.5 71.02 C-14.06 67.16 -13.62 63.36 -13.59 59.26 C-13.58 58.35 -13.57 57.44 -13.56 56.5 C-13.56 55.52 -13.55 54.55 -13.55 53.55 C-13.54 52.02 -13.54 52.02 -13.53 50.47 C-13.52 48.33 -13.51 46.18 -13.51 44.04 C-13.5 40.78 -13.47 37.51 -13.44 34.25 C-13.43 32.16 -13.43 30.07 -13.42 27.98 C-13.41 27.02 -13.4 26.05 -13.38 25.06 C-13.4 18.85 -14.4 13.76 -16.75 8 C-21.7 6.25 -23.84 7.75 -27.75 11 Z " fill="#EA7710" transform="translate(850.75,160)"/>
<path d="M0 0 C5.23 -0.02 10.47 -0.04 15.7 -0.05 C17.48 -0.06 19.26 -0.07 21.04 -0.08 C23.6 -0.09 26.15 -0.09 28.71 -0.1 C29.51 -0.1 30.31 -0.11 31.13 -0.11 C36.77 -0.11 36.77 -0.11 39 1 C39.33 19.48 39.66 37.96 40 57 C40.33 56.01 40.66 55.02 41 54 C45.96 48.64 50.55 44.5 58.02 43.66 C66.72 43.56 72.93 44.59 79.69 50.25 C80.45 51.16 81.21 52.06 82 53 C82.5 53.55 83.01 54.11 83.53 54.68 C91.14 63.67 91.54 75.12 91.44 86.44 C91.43 87.62 91.42 88.81 91.42 90.03 C91.26 98.28 90.72 105.5 87 113 C86.66 113.69 86.32 114.39 85.97 115.11 C82.28 121.26 75.53 125.05 68.75 126.88 C67.51 126.92 66.28 126.96 65 127 C63.91 127.04 62.82 127.07 61.7 127.11 C52.59 127.3 46.02 127.38 39 121 C38.34 122.32 37.68 123.64 37 125 C24.46 125 11.92 125 -1 125 C-0.67 124.01 -0.34 123.02 0 122 C2.31 122 4.62 122 7 122 C7 83.06 7 44.12 7 4 C4.36 4 1.72 4 -1 4 C-0.67 2.68 -0.34 1.36 0 0 Z M8 5 C8 43.94 8 82.88 8 123 C8.33 123 8.66 123 9 123 C9 84.06 9 45.12 9 5 C8.67 5 8.34 5 8 5 Z M44 56 C39.35 63.03 38.84 69.93 38.8 78.14 C38.79 79.02 38.79 79.9 38.78 80.81 C38.77 82.67 38.76 84.54 38.76 86.4 C38.75 89.23 38.72 92.05 38.69 94.88 C38.68 96.7 38.68 98.51 38.67 100.33 C38.66 101.16 38.65 102 38.63 102.86 C38.66 108.51 39.32 113.94 42 119 C45.47 121.18 47.66 122.03 51.75 121.94 C54.61 120.75 55.38 119.63 57 117 C59.66 106.81 59.21 95.83 59.25 85.38 C59.26 84.08 59.27 82.78 59.28 81.44 C59.64 67.08 59.64 67.08 55.68 53.61 C51.58 49.68 47.53 53.06 44 56 Z M59 68 C60 70 60 70 60 70 Z " fill="#EA7710" transform="translate(1187,115)"/>
<path d="M0 0 C0.8 0 1.6 0 2.42 0.01 C3.23 0.01 4.05 0 4.89 0 C6.62 0 8.34 0 10.07 0.01 C12.72 0.01 15.37 0.01 18.02 0 C19.69 0 21.37 0 23.04 0.01 C23.84 0 24.63 0 25.45 0 C31.07 0.02 31.07 0.02 33.3 1.14 C33.31 1.89 33.32 2.63 33.33 3.4 C33.43 10.46 33.53 17.52 33.64 24.58 C33.69 28.21 33.74 31.84 33.79 35.47 C33.84 38.98 33.89 42.49 33.95 46 C33.98 47.98 34.01 49.95 34.03 51.93 C34.1 61.09 34.1 61.09 35.3 70.14 C38.79 72.47 40.18 72.73 44.3 72.14 C48.41 67.92 49.42 65.16 49.5 59.4 C49.52 58.2 49.54 57 49.56 55.76 C49.58 54.46 49.6 53.16 49.61 51.82 C49.63 50.48 49.65 49.13 49.68 47.79 C49.73 44.26 49.78 40.72 49.83 37.19 C49.88 33.58 49.93 29.98 49.99 26.37 C50.1 19.29 50.2 12.22 50.3 5.14 C48.32 4.81 46.34 4.48 44.3 4.14 C44.63 2.82 44.96 1.5 45.3 0.14 C50.41 0.11 55.51 0.1 60.62 0.08 C62.36 0.08 64.1 0.07 65.84 0.06 C68.34 0.05 70.83 0.05 73.32 0.04 C74.11 0.04 74.89 0.03 75.69 0.03 C77.56 0.03 79.43 0.08 81.3 0.14 C83.21 2.05 82.47 5.51 82.5 8.05 C82.51 8.77 82.52 9.49 82.53 10.23 C82.56 12.63 82.59 15.03 82.61 17.42 C82.63 19.08 82.65 20.74 82.68 22.4 C82.73 26.77 82.78 31.14 82.83 35.51 C82.88 39.97 82.93 44.43 82.99 48.88 C83.1 57.63 83.2 66.39 83.3 75.14 C85.94 75.8 88.58 76.46 91.3 77.14 C91.3 77.8 91.3 78.46 91.3 79.14 C86.06 79.19 80.83 79.22 75.6 79.25 C73.82 79.26 72.04 79.27 70.26 79.29 C67.7 79.31 65.14 79.33 62.59 79.33 C61.79 79.34 60.99 79.35 60.16 79.37 C58.21 79.37 56.25 79.26 54.3 79.14 C51.73 76.57 51.76 74.66 51.3 71.14 C50.97 71.61 50.64 72.08 50.3 72.56 C46.33 77.77 42.78 80.09 36.3 81.14 C26.85 81.91 17.8 81.76 9.98 75.89 C4.74 70.52 2.21 65.01 2.09 57.47 C2.07 56.31 2.05 55.15 2.03 53.96 C2.01 52.7 2 51.45 1.98 50.16 C1.96 48.88 1.94 47.59 1.92 46.27 C1.86 42.86 1.81 39.45 1.76 36.05 C1.71 32.57 1.66 29.09 1.6 25.61 C1.5 18.79 1.39 11.96 1.3 5.14 C-1.01 4.81 -3.32 4.48 -5.7 4.14 C-6.03 3.15 -6.36 2.16 -6.7 1.14 C-4.89 -0.67 -2.41 0.01 0 0 Z M51.3 5.14 C51.3 21.64 51.3 38.14 51.3 55.14 C51.63 55.14 51.96 55.14 52.3 55.14 C52.3 38.64 52.3 22.14 52.3 5.14 C51.97 5.14 51.64 5.14 51.3 5.14 Z " fill="#EA7710" transform="translate(1090.7032318115234,160.86105346679688)"/>
<path d="M0 0 C7.15 6.36 10.71 14.1 11.81 23.5 C14.14 23.88 16.47 24.21 18.81 24.5 C20.12 23.42 20.12 23.42 19.84 20.85 C19.78 18.66 19.72 16.47 19.65 14.29 C19.81 11.5 19.81 11.5 21.81 9.5 C25.35 9.6 26.73 10.43 29.44 12.75 C34.17 18.23 35.33 21.6 35.09 28.85 C34.72 32.38 33.88 34.6 31.81 37.5 C30.8 38.15 29.79 38.79 28.75 39.46 C26.57 41.24 25.89 42.17 25.25 44.95 C25.03 47.9 24.98 50.8 25 53.75 C24.98 55.76 24.95 57.76 24.92 59.77 C24.92 60.65 24.92 61.53 24.92 62.45 C24.81 64.5 24.81 64.5 23.81 65.5 C21.77 65.6 19.72 65.64 17.67 65.65 C16.36 65.65 15.04 65.66 13.69 65.66 C12.24 65.67 10.79 65.67 9.35 65.67 C7.87 65.67 6.4 65.67 4.93 65.68 C1.83 65.68 -1.26 65.69 -4.35 65.69 C-8.32 65.69 -12.29 65.7 -16.26 65.72 C-19.3 65.73 -22.35 65.73 -25.39 65.73 C-26.86 65.73 -28.32 65.73 -29.78 65.74 C-31.83 65.75 -33.87 65.75 -35.92 65.74 C-37.67 65.75 -37.67 65.75 -39.45 65.75 C-42.19 65.5 -42.19 65.5 -44.19 63.5 C-44.4 61.56 -44.4 61.56 -44.36 59.21 C-43.87 48.03 -43.87 48.03 -48.62 38.44 C-49.8 37.44 -50.98 36.46 -52.19 35.5 C-54.87 31.47 -55.61 28.09 -54.82 23.25 C-53.21 17.39 -50.42 13.65 -45.19 10.5 C-43.09 9.72 -43.09 9.72 -41.19 9.5 C-40.53 10.16 -39.87 10.82 -39.19 11.5 C-39.33 14.08 -39.77 16.55 -40.19 19.09 C-40.39 21.51 -40.39 21.51 -39.09 23.32 C-36.42 24.98 -34.26 24.71 -31.19 24.5 C-31.03 23.65 -30.87 22.81 -30.71 21.94 C-27.63 6.97 -27.63 6.97 -21.19 1.94 C-14.03 -2.7 -7.91 -3.72 0 0 Z " fill="#E69837" transform="translate(209.1875,132.5)"/>
<path d="M0 0 C1.04 -0 1.04 -0 2.11 -0 C4.45 -0.01 6.79 -0.01 9.13 -0 C10.8 -0 12.48 -0.01 14.15 -0.01 C18.7 -0.01 23.26 -0.01 27.81 -0.01 C32.57 -0 37.32 -0.01 42.08 -0.01 C50.07 -0.01 58.05 -0.01 66.04 -0 C75.29 0 84.54 0 93.78 -0.01 C101.71 -0.01 109.64 -0.01 117.56 -0.01 C122.3 -0.01 127.04 -0.01 131.78 -0.01 C136.24 -0.01 140.69 -0.01 145.15 -0 C146.79 -0 148.43 -0 150.07 -0.01 C152.29 -0.01 154.52 -0.01 156.75 0 C158 0 159.25 0 160.54 0 C163.31 0.13 163.31 0.13 164.31 1.13 C164.4 2.83 164.42 4.55 164.41 6.26 C164.41 7.29 164.4 8.32 164.4 9.39 C164.39 10.48 164.38 11.57 164.37 12.69 C164.37 13.78 164.37 14.87 164.36 16 C164.35 18.71 164.33 21.42 164.31 24.13 C142.29 24.22 120.26 24.29 98.23 24.33 C88 24.35 77.78 24.38 67.55 24.43 C58.63 24.47 49.72 24.49 40.8 24.5 C36.08 24.51 31.36 24.52 26.64 24.55 C22.2 24.58 17.75 24.59 13.31 24.58 C11.68 24.58 10.05 24.59 8.42 24.6 C-6.74 24.74 -6.74 24.74 -13.69 20.13 C-13.69 19.47 -13.69 18.81 -13.69 18.13 C-14.35 18.13 -15.01 18.13 -15.69 18.13 C-16.55 14.21 -16.91 11.76 -15.56 7.94 C-11.32 1.57 -7.35 0 0 0 Z " fill="#E69634" transform="translate(125.68763732910156,275.8730163574219)"/>
<path d="M0 0 C0.79 0.01 1.59 0.01 2.41 0.02 C12.17 0.22 20.08 2.29 27.19 9.31 C33.11 16.44 36.38 23.8 36.26 33.1 C36.25 34.08 36.24 35.06 36.23 36.07 C36.21 36.81 36.2 37.55 36.19 38.31 C35.63 38.32 35.06 38.33 34.49 38.34 C28.66 38.45 22.84 38.57 17.02 38.68 C14.84 38.73 12.66 38.77 10.49 38.81 C7.37 38.87 4.25 38.93 1.13 39 C0.15 39.01 -0.83 39.03 -1.84 39.05 C-3.19 39.08 -3.19 39.08 -4.57 39.11 C-5.76 39.13 -5.76 39.13 -6.98 39.15 C-8.83 39.12 -8.83 39.12 -9.81 40.31 C-10.84 57.79 -10.84 57.79 -3.81 73.31 C0.65 76 4 76.72 9.19 76.69 C10.36 76.7 11.54 76.7 12.75 76.71 C19.07 75.98 23.13 73.08 27.19 68.31 C28.78 65.68 30.3 63.03 31.76 60.32 C32.23 59.66 32.7 59 33.19 58.31 C34.18 58.31 35.17 58.31 36.19 58.31 C35.23 65.96 30.96 73.27 25.19 78.31 C14.34 84.95 -1.02 84.73 -13.25 82.56 C-23.55 80.04 -31.8 74.99 -38.26 66.38 C-44.34 56.22 -45.26 43.31 -43.19 31.81 C-40.51 21.63 -35.61 13.24 -26.81 7.31 C-18.21 2.58 -9.82 -0.07 0 0 Z M-5.44 5.69 C-11.7 12.61 -11.18 21.2 -11.02 30.03 C-11.19 33.16 -11.19 33.16 -9.81 34.31 C-7.28 34.39 -4.78 34.4 -2.25 34.38 C-1.54 34.37 -0.83 34.37 -0.1 34.36 C1.67 34.35 3.43 34.33 5.19 34.31 C5.28 30.6 5.33 26.9 5.38 23.19 C5.4 22.14 5.43 21.09 5.45 20.02 C5.5 14.41 5.54 10.08 2.19 5.31 C-1.09 3.76 -2.24 4.01 -5.44 5.69 Z " fill="#E97710" transform="translate(918.8125,158.6875)"/>
<path d="M0 0 C2.94 2.11 5.49 4.39 8 7 C8.76 7.78 9.53 8.57 10.31 9.38 C14.14 15.33 15.17 20.75 15.08 27.81 C15.06 29.55 15.06 29.55 15.04 31.33 C15.03 32.21 15.01 33.09 15 34 C14.45 34.01 13.9 34.02 13.34 34.03 C7.64 34.14 1.95 34.25 -3.74 34.37 C-5.87 34.42 -8 34.46 -10.13 34.5 C-13.18 34.55 -16.23 34.62 -19.28 34.68 C-20.23 34.7 -21.19 34.72 -22.18 34.73 C-23.5 34.76 -23.5 34.76 -24.85 34.79 C-25.63 34.81 -26.41 34.83 -27.21 34.84 C-29.02 34.81 -29.02 34.81 -30 36 C-30.95 51.37 -30.95 51.37 -27 66 C-24.74 68.63 -24.74 68.63 -22 70 C-21.43 70.35 -20.85 70.7 -20.26 71.06 C-14.7 73.37 -7.05 73.13 -1.45 71.05 C5.4 66.95 8.71 61.04 12 54 C12.99 54 13.98 54 15 54 C13.92 62.82 10.86 68.47 4 74 C-6.36 80.86 -21.63 80.39 -33.5 78.19 C-45.37 75.33 -53.27 70.41 -60 60 C-65.55 49.04 -65.64 34.68 -62.38 23.06 C-58.71 12.58 -51.62 5.35 -42 0 C-29.3 -5.5 -12.42 -7.12 0 0 Z M-29 5 C-31.24 10.14 -31.27 14.82 -31.19 20.31 C-31.19 21.14 -31.19 21.96 -31.19 22.81 C-31.53 26.72 -31.53 26.72 -30 30 C-27.47 30.07 -24.97 30.09 -22.44 30.06 C-21.73 30.06 -21.02 30.05 -20.28 30.05 C-18.52 30.04 -16.76 30.02 -15 30 C-14.91 26.67 -14.86 23.33 -14.81 20 C-14.79 19.07 -14.76 18.13 -14.74 17.17 C-14.67 11.04 -15.44 6.58 -18 1 C-19.04 -0.23 -19.04 -0.23 -21.25 -0.38 C-25.23 0.17 -26.52 1.92 -29 5 Z " fill="#E97710" transform="translate(623,163)"/>
<path d="M0 0 C3.97 2.88 6.79 5.43 8.75 10 C9.67 17.03 10.28 24.11 5.75 30 C2.5 33.24 -0.12 33.43 -4.62 33.44 C-10.21 33.31 -13.19 32.84 -17.25 29 C-19.42 25.75 -19.52 24.71 -19.5 20.94 C-19.51 19.62 -19.51 19.62 -19.52 18.28 C-19.25 16 -19.25 16 -17.25 14 C-14.12 13.88 -14.12 13.88 -11.25 14 C-11.75 10.04 -11.75 10.04 -12.25 6 C-17.75 7.19 -20.68 8.4 -24.25 13 C-29.65 22.73 -30.41 31.51 -30.35 42.41 C-30.35 43.85 -30.35 43.85 -30.34 45.33 C-30.34 48.39 -30.33 51.44 -30.31 54.5 C-30.31 56.58 -30.3 58.67 -30.3 60.75 C-30.29 65.83 -30.27 70.92 -30.25 76 C-29.62 76.06 -29 76.12 -28.35 76.18 C-27.53 76.27 -26.72 76.35 -25.88 76.44 C-24.66 76.56 -24.66 76.56 -23.41 76.68 C-21.25 77 -21.25 77 -19.25 78 C-19.25 78.66 -19.25 79.32 -19.25 80 C-36.08 80 -52.91 80 -70.25 80 C-69.92 79.01 -69.59 78.02 -69.25 77 C-66.94 77 -64.63 77 -62.25 77 C-62.58 53.57 -62.91 30.14 -63.25 6 C-65.56 5.67 -67.87 5.34 -70.25 5 C-69.92 3.68 -69.59 2.36 -69.25 1 C-64.16 0.98 -59.07 0.96 -53.98 0.95 C-52.25 0.94 -50.51 0.93 -48.78 0.92 C-46.29 0.91 -43.81 0.91 -41.32 0.9 C-40.54 0.9 -39.77 0.89 -38.97 0.89 C-33.48 0.89 -33.48 0.89 -31.25 2 C-30.84 4.07 -30.84 4.07 -30.62 6.56 C-30.55 7.39 -30.48 8.22 -30.4 9.07 C-30.35 9.7 -30.3 10.34 -30.25 11 C-29.57 10.28 -28.89 9.56 -28.19 8.81 C-20.15 0.8 -11.38 -3.5 0 0 Z " fill="#EA7710" transform="translate(547.25,160)"/>
<path d="M0 0 C5.15 5.4 6.81 8.82 7.06 16.25 C6.88 21.5 6.47 24.88 2.56 28.69 C-2.2 31.58 -5.92 32.1 -11.29 31.27 C-14.54 30.39 -16.84 28.79 -19.44 26.69 C-19.98 26.26 -20.52 25.84 -21.08 25.4 C-23.01 22.97 -22.8 21.19 -22.75 18.12 C-22.75 17.15 -22.74 16.18 -22.74 15.18 C-22.44 12.69 -22.44 12.69 -20.44 10.69 C-17.81 10.56 -17.81 10.56 -15.44 10.69 C-15.55 9.25 -15.68 7.81 -15.81 6.38 C-15.92 5.17 -15.92 5.17 -16.02 3.95 C-16.33 1.42 -16.33 1.42 -18.44 -1.31 C-22.41 -1.84 -24.68 -1.74 -28.19 0.25 C-36.64 9.4 -35.78 24.07 -35.75 35.69 C-35.77 36.98 -35.78 38.27 -35.8 39.59 C-35.8 48.55 -35.53 59.47 -29.44 66.69 C-24.26 70.44 -18.59 70.59 -12.44 69.69 C-5.56 67.25 -1.77 61.94 1.56 55.69 C2.93 52.35 2.93 52.35 3.56 49.69 C4.55 49.69 5.54 49.69 6.56 49.69 C7.38 55.89 4.88 60.62 1.56 65.69 C-4.69 72.7 -11.16 75.59 -20.44 76.69 C-34.45 77.34 -46.45 76.52 -57.62 67.5 C-63.55 62.08 -67.98 54.3 -68.64 46.2 C-68.74 43.25 -68.76 40.32 -68.75 37.38 C-68.77 36.38 -68.78 35.39 -68.8 34.36 C-68.81 22.99 -65.42 14.1 -57.62 5.74 C-43.13 -7.78 -16.66 -12.42 0 0 Z M-14.44 4.69 C-13.44 7.69 -13.44 7.69 -13.44 7.69 Z " fill="#E97710" transform="translate(713.4375,165.3125)"/>
<path d="M0 0 C5.39 -0.02 10.79 -0.04 16.18 -0.05 C18.02 -0.06 19.85 -0.07 21.69 -0.08 C24.32 -0.09 26.96 -0.09 29.59 -0.1 C30.42 -0.1 31.24 -0.11 32.09 -0.11 C34.06 -0.11 36.03 -0.06 38 0 C39.91 1.91 39.18 5.37 39.21 7.91 C39.22 8.63 39.23 9.35 39.24 10.09 C39.27 12.49 39.29 14.89 39.32 17.29 C39.34 18.94 39.36 20.6 39.38 22.26 C39.43 26.63 39.48 31 39.53 35.37 C39.58 39.83 39.64 44.29 39.69 48.74 C39.8 57.5 39.9 66.25 40 75 C42.97 75.66 45.94 76.32 49 77 C49 77.66 49 78.32 49 79 C32.83 79 16.66 79 0 79 C0.33 78.01 0.66 77.02 1 76 C3.31 76 5.62 76 8 76 C7.67 52.57 7.34 29.14 7 5 C4.36 4.67 1.72 4.34 -1 4 C-0.67 2.68 -0.34 1.36 0 0 Z " fill="#EA7710" transform="translate(725,161)"/>
<path d="M0 0 C1.21 -0.03 2.43 -0.05 3.68 -0.08 C8.59 0.39 11.06 2.15 14.44 5.62 C16.99 11.12 16.86 16.29 16.12 22.25 C14.3 26.48 12.92 27.78 9 30.12 C3.44 32.15 -2.32 31.65 -8.06 30.75 C-12.39 28.44 -15.37 25.47 -17.88 21.25 C-18.93 16.77 -18.25 13.27 -16.69 9 C-12.01 1.9 -8.33 0.11 0 0 Z " fill="#EA7710" transform="translate(749.875,118.75)"/>
<path d="M0 0 C1.29 -0.01 2.59 -0.01 3.92 -0.02 C5.34 -0.02 6.76 -0.01 8.18 -0.01 C9.63 -0.01 11.08 -0.01 12.53 -0.01 C15.57 -0.02 18.61 -0.01 21.65 -0 C25.55 0.01 29.45 0 33.35 -0.01 C36.35 -0.02 39.34 -0.01 42.33 -0.01 C43.77 -0.01 45.21 -0.01 46.65 -0.01 C48.66 -0.02 50.67 -0.01 52.68 0 C53.82 0 54.96 0 56.14 0 C58.84 0.26 58.84 0.26 60.84 2.26 C61.07 4.39 61.07 4.39 61.03 6.82 C61.02 7.63 61.01 8.43 61.01 9.26 C60.84 11.26 60.84 11.26 59.84 12.26 C57.79 12.36 55.74 12.4 53.7 12.4 C52.38 12.41 51.07 12.42 49.71 12.42 C48.27 12.42 46.82 12.43 45.37 12.43 C43.9 12.43 42.43 12.43 40.95 12.44 C37.86 12.44 34.77 12.44 31.67 12.44 C27.7 12.44 23.74 12.46 19.77 12.47 C16.72 12.49 13.68 12.49 10.63 12.49 C9.17 12.49 7.71 12.49 6.24 12.5 C4.2 12.51 2.15 12.51 0.11 12.5 C-1.06 12.5 -2.22 12.5 -3.42 12.51 C-6.16 12.26 -6.16 12.26 -8.16 10.26 C-8.43 8.38 -8.43 8.38 -8.41 6.26 C-8.42 5.56 -8.42 4.86 -8.43 4.13 C-7.74 -0.69 -3.94 0.01 0 0 Z " fill="#E69230" transform="translate(173.162109375,208.7412109375)"/>
</svg>
